<svg xmlns="http://www.w3.org/2000/svg" xmlns:xlink="http://www.w3.org/1999/xlink" viewBox="0 0 239.8 215"><defs><style>.cls-1{fill:none;}.cls-2{clip-path:url(#clip-path);}.cls-3{fill:#9ed4b4;}.cls-4{fill:#030067;}</style><clipPath id="clip-path" transform="translate(-9.44)"><rect class="cls-1" width="258.25" height="233.5"/></clipPath></defs><g id="Layer_2" data-name="Layer 2"><g id="Layer_1-2" data-name="Layer 1"><g class="cls-2"><path class="cls-3" d="M135.28,215A107.5,107.5,0,1,0,27.78,107.5,107.5,107.5,0,0,0,135.28,215" transform="translate(-9.44)"/></g><g class="cls-2"><path class="cls-4" d="M40.4,28.66A4.36,4.36,0,1,0,36,24.3a4.37,4.37,0,0,0,4.36,4.36" transform="translate(-9.44)"/><path class="cls-4" d="M27.44,42.3a4.37,4.37,0,1,0-4.36-4.36,4.37,4.37,0,0,0,4.36,4.36" transform="translate(-9.44)"/><path class="cls-4" d="M13.81,28.66A4.36,4.36,0,1,0,9.44,24.3a4.36,4.36,0,0,0,4.37,4.36" transform="translate(-9.44)"/><path class="cls-4" d="M40.4,55.94A4.37,4.37,0,1,0,36,51.57a4.37,4.37,0,0,0,4.36,4.37" transform="translate(-9.44)"/><path class="cls-4" d="M13.81,55.94a4.37,4.37,0,1,0-4.37-4.37,4.37,4.37,0,0,0,4.37,4.37" transform="translate(-9.44)"/><path class="cls-4" d="M40.4,73.36A4.37,4.37,0,1,1,36,77.73a4.37,4.37,0,0,1,4.36-4.37" transform="translate(-9.44)"/><path class="cls-4" d="M27.44,59.72a4.37,4.37,0,1,1-4.36,4.37,4.37,4.37,0,0,1,4.36-4.37" transform="translate(-9.44)"/><path class="cls-4" d="M13.81,73.36a4.37,4.37,0,1,1-4.37,4.37,4.37,4.37,0,0,1,4.37-4.37" transform="translate(-9.44)"/><path class="cls-4" d="M40.4,99.51A4.37,4.37,0,1,1,36,103.88a4.37,4.37,0,0,1,4.36-4.37" transform="translate(-9.44)"/><path class="cls-4" d="M27.44,85.88a4.37,4.37,0,1,1-4.36,4.36,4.37,4.37,0,0,1,4.36-4.36" transform="translate(-9.44)"/><path class="cls-4" d="M13.81,99.51a4.37,4.37,0,1,1-4.37,4.37,4.37,4.37,0,0,1,4.37-4.37" transform="translate(-9.44)"/><path class="cls-4" d="M244.88,167.81a4.37,4.37,0,1,0-4.36-4.36,4.37,4.37,0,0,0,4.36,4.36" transform="translate(-9.44)"/><path class="cls-4" d="M231.93,181.45a4.37,4.37,0,1,0-4.37-4.37,4.37,4.37,0,0,0,4.37,4.37" transform="translate(-9.44)"/><path class="cls-4" d="M218.29,167.81a4.37,4.37,0,1,0-4.37-4.36,4.36,4.36,0,0,0,4.37,4.36" transform="translate(-9.44)"/><path class="cls-4" d="M229.42,31.64a4.37,4.37,0,1,0,4.37-4.37,4.37,4.37,0,0,0-4.37,4.37" transform="translate(-9.44)"/><path class="cls-4" d="M215.79,18.68a4.37,4.37,0,1,0,4.36-4.37,4.36,4.36,0,0,0-4.36,4.37" transform="translate(-9.44)"/><path class="cls-4" d="M229.42,5A4.37,4.37,0,1,0,233.79.68,4.37,4.37,0,0,0,229.42,5" transform="translate(-9.44)"/><path class="cls-4" d="M202.15,31.64a4.37,4.37,0,1,0,4.36-4.37,4.36,4.36,0,0,0-4.36,4.37" transform="translate(-9.44)"/><path class="cls-4" d="M202.15,5A4.37,4.37,0,1,0,206.51.68,4.36,4.36,0,0,0,202.15,5" transform="translate(-9.44)"/><path class="cls-4" d="M184.73,31.64a4.37,4.37,0,1,1-4.37-4.37,4.37,4.37,0,0,1,4.37,4.37" transform="translate(-9.44)"/><path class="cls-4" d="M198.36,18.68A4.37,4.37,0,1,1,194,14.31a4.36,4.36,0,0,1,4.36,4.37" transform="translate(-9.44)"/><path class="cls-4" d="M184.73,5A4.37,4.37,0,1,1,180.36.68,4.37,4.37,0,0,1,184.73,5" transform="translate(-9.44)"/><path class="cls-4" d="M158.57,31.64a4.37,4.37,0,1,1-4.36-4.37,4.36,4.36,0,0,1,4.36,4.37" transform="translate(-9.44)"/><path class="cls-4" d="M172.21,18.68a4.37,4.37,0,1,1-4.37-4.37,4.37,4.37,0,0,1,4.37,4.37" transform="translate(-9.44)"/><path class="cls-4" d="M158.57,5A4.37,4.37,0,1,1,154.21.68,4.36,4.36,0,0,1,158.57,5" transform="translate(-9.44)"/></g></g></g></svg>